<svg width="20" height="21" viewBox="0 0 20 21" fill="none" xmlns="http://www.w3.org/2000/svg">
<path d="M0 0H20V2H18V20.08L16.375 18.78L14.534 17.308L12.914 18.748L12.25 19.338L11.586 18.748L10 17.337L8.414 18.747L7.75 19.337L7.086 18.747L5.466 17.307L3.625 18.78L2 20.08V2H0V0ZM4 2V15.92L4.875 15.22L5.534 14.692L6.164 15.252L7.75 16.662L9.336 15.252L10 14.662L10.664 15.252L12.25 16.662L13.836 15.252L14.466 14.692L15.125 15.219L16 15.919V2H4ZM6 5H14V7H6V5ZM8 9H7V11H13V9H8Z" fill="#595959"/>
</svg>
