<svg width="24" height="24" viewBox="0 0 24 24" fill="none" xmlns="http://www.w3.org/2000/svg">
<path d="M6.42042 18.1098L6.15525 18.375L6.42042 18.6401L7.01513 19.2348C7.01514 19.2348 7.01516 19.2349 7.01517 19.2349C7.08545 19.3052 7.12492 19.4005 7.12492 19.5C7.12492 19.5994 7.08543 19.6948 7.01513 19.7651L4.01521 22.765C4.0152 22.765 4.01518 22.765 4.01517 22.765C3.94485 22.8353 3.8495 22.8748 3.75008 22.8748C3.65067 22.8748 3.55532 22.8353 3.485 22.765C3.48499 22.765 3.48497 22.765 3.48496 22.765L1.23504 20.5151C1.16474 20.4448 1.12524 20.3494 1.12524 20.25C1.12524 20.1505 1.16474 20.0552 1.23504 19.9848L4.23496 16.9849C4.23497 16.9849 4.23499 16.9849 4.235 16.9849C4.30532 16.9146 4.40067 16.8751 4.50008 16.8751C4.5995 16.8751 4.69485 16.9146 4.76517 16.9849C4.76518 16.9849 4.7652 16.9849 4.76521 16.9849L5.35992 17.5796L5.62508 17.8448L5.89025 17.5796L8.81783 14.652L9.348 15.1822L6.42042 18.1098ZM3.48492 21.7046L3.75008 21.9698L4.01525 21.7046L5.95475 19.7651L6.21991 19.5L5.95475 19.2348L4.76525 18.0453L4.50008 17.7801L4.23492 18.0453L2.29542 19.9848L2.03025 20.25L2.29542 20.5151L3.48492 21.7046Z" stroke="#595959" stroke-width="0.75"/>
<path d="M2.16622 4.49901L2.37541 3.96627L4.4545 6.04536L4.45443 6.04542L4.4605 6.05122C4.67306 6.25447 4.95582 6.36791 5.24991 6.36791C5.54401 6.36791 5.82677 6.25448 6.03933 6.05122L6.03939 6.05129L6.0451 6.04558C6.1497 5.94116 6.23268 5.81714 6.2893 5.68062C6.34592 5.54409 6.37506 5.39774 6.37506 5.24994C6.37506 5.10214 6.34592 4.95579 6.2893 4.81927C6.23273 4.68284 6.14982 4.5589 6.04533 4.45453C6.04531 4.4545 6.04528 4.45448 6.04526 4.45446C6.04521 4.45441 6.04516 4.45435 6.0451 4.4543L3.96522 2.37442L4.4986 2.16564L4.4986 2.16565L4.50038 2.16494C5.12475 1.91686 5.80044 1.8257 6.46823 1.89947C7.13602 1.97324 7.77552 2.20968 8.33068 2.58806C8.88584 2.96645 9.33972 3.47523 9.65253 4.06981C9.96535 4.66439 10.1275 5.32663 10.1249 5.99847L10.1249 5.99962C10.1246 6.35811 10.0762 6.71494 9.9809 7.06053L9.92288 7.27099L10.0772 7.42536L16.5745 13.9226L16.7288 14.0769L16.9392 14.019C17.2849 13.9238 17.6418 13.8754 18.0004 13.8749L18.0014 13.8749C18.6732 13.8723 19.3355 14.0344 19.9301 14.3472C20.5246 14.66 21.0334 15.1139 21.4117 15.6691C21.7901 16.2243 22.0264 16.8638 22.1001 17.5316C22.1737 18.1994 22.0824 18.8751 21.8342 19.4994L21.8335 19.5011L21.6249 20.0334L19.5453 17.9545L19.5454 17.9544L19.5391 17.9485C19.3266 17.7456 19.0441 17.6323 18.7503 17.6323C18.4565 17.6323 18.1739 17.7456 17.9614 17.9485L17.9614 17.9484L17.9557 17.9541C17.851 18.0585 17.7679 18.1824 17.7112 18.3189C17.6545 18.4554 17.6252 18.6017 17.6251 18.7495C17.625 18.8973 17.6541 19.0437 17.7106 19.1803C17.7671 19.3168 17.85 19.4409 17.9545 19.5454C17.9545 19.5454 17.9545 19.5454 17.9545 19.5454L20.0342 21.6251L19.5009 21.8344L19.4993 21.835C19.022 22.0249 18.5133 22.1232 17.9996 22.1249C16.9061 22.1235 15.8579 21.6884 15.0846 20.9152C14.3113 20.1419 13.8763 19.0935 13.8749 17.9998C13.8753 17.6415 13.9237 17.2848 14.0189 16.9393L14.0769 16.7289L13.9226 16.5745L7.42609 10.0773L7.27176 9.92294L7.06132 9.98091C6.71545 10.0762 6.35835 10.1246 5.99959 10.1249L5.99841 10.1249C5.32658 10.1276 4.66435 9.96546 4.06977 9.65265C3.4752 9.33984 2.96644 8.88594 2.58811 8.33075C2.20977 7.77557 1.97342 7.13604 1.89976 6.46825C1.8261 5.80046 1.91739 5.1248 2.16563 4.5005L2.16563 4.5005L2.16622 4.49901ZM6.9813 5.96717C6.88761 6.19335 6.75053 6.39898 6.57782 6.57245C6.21931 6.91324 5.74354 7.10334 5.24879 7.10334C4.75402 7.10334 4.27822 6.91323 3.91971 6.5724L3.27048 5.92243L2.57515 5.2263L2.63076 6.20864C2.66086 6.74022 2.81699 7.25702 3.08626 7.71634C3.35554 8.17567 3.73023 8.56434 4.17939 8.85025C4.62855 9.13616 5.13928 9.3111 5.66941 9.36064C6.19914 9.41013 6.73304 9.33299 7.22707 9.13557C7.22745 9.13542 7.22782 9.13527 7.22819 9.13512L7.45564 9.04578L14.9534 16.545L14.8647 16.7709C14.8646 16.7713 14.8644 16.7717 14.8642 16.7721C14.6669 17.2662 14.5897 17.8 14.6392 18.3297C14.6888 18.8598 14.8637 19.3706 15.1496 19.8197C15.4355 20.2689 15.8242 20.6436 16.2835 20.9128C16.7428 21.1821 17.2596 21.3382 17.7912 21.3683L18.7736 21.424L18.0774 20.7286L17.4243 20.0763C17.4243 20.0762 17.4242 20.0762 17.4242 20.0761C17.2501 19.902 17.112 19.6954 17.0178 19.4679C16.9235 19.2404 16.875 18.9966 16.875 18.7503C16.875 18.5041 16.9235 18.2602 17.0178 18.0327C17.1115 17.8065 17.2486 17.6009 17.4213 17.4274C17.7798 17.0866 18.2555 16.8965 18.7503 16.8965C19.2451 16.8965 19.7209 17.0867 20.0794 17.4275L20.7286 18.0775L21.4242 18.7738L21.3683 17.7912C21.3381 17.2596 21.1818 16.7428 20.9125 16.2835C20.6431 15.8242 20.2684 15.4355 19.8191 15.1496C19.3699 14.8638 18.8592 14.6888 18.329 14.6393C17.7993 14.5898 17.2654 14.6669 16.7714 14.8643C16.771 14.8644 16.7706 14.8646 16.7702 14.8648L16.5442 14.9534L9.0466 7.4558L9.13589 7.22884C9.13602 7.22852 9.13615 7.2282 9.13628 7.22788C9.33356 6.73374 9.41056 6.19978 9.36093 5.67002C9.31127 5.13992 9.13623 4.62924 8.85027 4.18013C8.5643 3.73102 8.17562 3.35637 7.7163 3.0871C7.25699 2.81784 6.74021 2.66169 6.20865 2.63154L5.22701 2.57587L5.92225 3.27111L6.57475 3.92361L6.57477 3.92363C6.74891 4.09774 6.88705 4.30446 6.9813 4.53196C7.07555 4.75947 7.12406 5.00331 7.12406 5.24957C7.12406 5.49582 7.07555 5.73967 6.9813 5.96717Z" fill="black" stroke="#595959" stroke-width="0.75"/>
<path d="M15.7013 9.86862L21.0462 4.52369L21.0468 4.52312C21.257 4.312 21.375 4.0262 21.375 3.72827C21.375 3.43034 21.257 3.14455 21.0468 2.93343L21.0469 2.93334L21.04 2.92675C20.8273 2.72382 20.5447 2.61059 20.2508 2.61059C19.9569 2.61059 19.6743 2.72382 19.4616 2.92675L19.4616 2.92667L19.4554 2.93286L14.1105 8.27769L13.5804 7.74752L18.922 2.40589C19.2805 2.06502 19.7564 1.87488 20.2512 1.87488C20.7459 1.87488 21.2216 2.06492 21.5801 2.40563C21.9292 2.75705 22.1248 3.23254 22.1248 3.72865C22.1248 4.22587 21.9275 4.70279 21.5763 5.05473C21.5762 5.05477 21.5762 5.05481 21.5761 5.05485L16.2316 10.3993L15.7013 9.86862Z" fill="black" stroke="#595959" stroke-width="0.75"/>
</svg>
