<svg width="22" height="20" viewBox="0 0 22 20" fill="none" xmlns="http://www.w3.org/2000/svg">
<path d="M11 12C10.7348 12 10.4804 11.8946 10.2929 11.7071C10.1054 11.5195 10 11.2652 10 11V7.99997C10 7.73475 10.1054 7.4804 10.2929 7.29286C10.4804 7.10532 10.7348 6.99997 11 6.99997C11.2652 6.99997 11.5196 7.10532 11.7071 7.29286C11.8947 7.4804 12 7.73475 12 7.99997V11C12 11.2652 11.8947 11.5195 11.7071 11.7071C11.5196 11.8946 11.2652 12 11 12ZM9.50002 14.5C9.50002 14.1021 9.65805 13.7206 9.93935 13.4393C10.2207 13.158 10.6022 13 11 13C11.3978 13 11.7794 13.158 12.0607 13.4393C12.342 13.7206 12.5 14.1021 12.5 14.5C12.5 14.8978 12.342 15.2793 12.0607 15.5606C11.7794 15.8419 11.3978 16 11 16C10.6022 16 10.2207 15.8419 9.93935 15.5606C9.65805 15.2793 9.50002 14.8978 9.50002 14.5Z" fill="#595959"/>
<path d="M9.23001 1.21597C9.98001 -0.209033 12.02 -0.209033 12.77 1.21597L21.113 17.068C21.814 18.4 20.85 20 19.343 20H2.65702C1.15202 20 0.187015 18.4 0.887015 17.069L9.23001 1.21597ZM19.344 18L11 2.14697L2.65602 18H19.344Z" fill="#595959"/>
</svg>
