<svg width="24" height="24" viewBox="0 0 24 24" fill="none" xmlns="http://www.w3.org/2000/svg">
    <path
        d="M9 1.09009V6.00009H7V1.09009C4.16 1.57009 2 4.03009 2 7.00009C2 9.22009 3.21 11.1501 5 12.1901V21.0001C5 21.5501 5.45 22.0001 6 22.0001H10C10.55 22.0001 11 21.5501 11 21.0001V12.1901C12.79 11.1501 14 9.22009 14 7.00009C14 4.03009 11.84 1.57009 9 1.09009ZM10 10.4601L9 11.0401V20.0001H7V11.0401L6 10.4601C4.77 9.74009 4 8.42009 4 7.00009C4 6.00009 4.37 5.06009 5 4.35009V8.00009H11V4.35009C11.63 5.06009 12 6.00009 12 7.00009C12 8.42009 11.23 9.74009 10 10.4601ZM20.94 17.9401C20.9808 17.6448 20.9808 17.3454 20.94 17.0501L21.91 16.3201C21.9543 16.2879 21.985 16.2403 21.9961 16.1867C22.0072 16.1331 21.9979 16.0772 21.97 16.0301L21.05 14.4701C21 14.3701 20.87 14.3301 20.76 14.3701L19.61 14.8201C19.37 14.6501 19.12 14.5001 18.83 14.3801L18.66 13.1901C18.6496 13.1367 18.621 13.0886 18.579 13.0539C18.5371 13.0193 18.4844 13.0002 18.43 13.0001H16.58C16.46 13.0001 16.36 13.0801 16.34 13.1901L16.17 14.3801C15.88 14.5001 15.63 14.6501 15.39 14.8201L14.24 14.3701C14.14 14.3301 14 14.3701 13.96 14.4701L13.03 16.0301C12.97 16.1301 13 16.2501 13.09 16.3201L14.06 17.0501C14.05 17.2001 14.03 17.3501 14.03 17.5001C14.03 17.6501 14.05 17.7901 14.06 17.9401L13.09 18.6801C13.0457 18.7123 13.015 18.7598 13.0039 18.8135C12.9928 18.8671 13.0021 18.923 13.03 18.9701L13.96 20.5301C14 20.6301 14.14 20.6601 14.24 20.6301L15.39 20.1701C15.63 20.3501 15.88 20.5001 16.17 20.6201L16.34 21.8101C16.36 21.9201 16.46 22.0001 16.58 22.0001H18.43C18.54 22.0001 18.64 21.9201 18.66 21.8101L18.83 20.6201C19.12 20.5001 19.37 20.3501 19.61 20.1701L20.76 20.6301C20.87 20.6601 21 20.6301 21.05 20.5301L21.97 18.9701C21.9979 18.923 22.0072 18.8671 21.9961 18.8135C21.985 18.7598 21.9543 18.7123 21.91 18.6801L20.94 17.9401ZM17.5 19.0001C16.67 19.0001 16 18.3301 16 17.5001C16 16.6701 16.67 16.0001 17.5 16.0001C18.33 16.0001 19 16.6701 19 17.5001C19 18.3301 18.33 19.0001 17.5 19.0001Z"
        fill="#0A95CC" />
</svg>