<svg width="20" height="20" viewBox="0 0 20 20" fill="none" xmlns="http://www.w3.org/2000/svg">
    <path
        d="M0 3.25C0 2.38805 0.34241 1.5614 0.951903 0.951903C1.5614 0.34241 2.38805 0 3.25 0H14.75C15.612 0 16.4386 0.34241 17.0481 0.951903C17.6576 1.5614 18 2.38805 18 3.25V8.908C17.9087 8.70806 17.7717 8.53233 17.6001 8.39495C17.4285 8.25757 17.2271 8.16237 17.012 8.117C16.8429 8.07996 16.672 8.05159 16.5 8.032V5.5H1.5V14.75C1.5 15.716 2.284 16.5 3.25 16.5H8.926L8.74 16.686C8.38096 17.0439 8.13838 17.5019 8.044 18H3.25C2.38805 18 1.5614 17.6576 0.951903 17.0481C0.34241 16.4386 0 15.612 0 14.75V3.25ZM16.5 3.25C16.5 2.78587 16.3156 2.34075 15.9874 2.01256C15.6592 1.68437 15.2141 1.5 14.75 1.5H3.25C2.78587 1.5 2.34075 1.68437 2.01256 2.01256C1.68437 2.34075 1.5 2.78587 1.5 3.25V4H16.5V3.25ZM9.075 18C9.1492 17.7711 9.2767 17.563 9.447 17.393L12.177 14.663C11.8853 13.975 11.7885 13.2201 11.8971 12.4808C12.0056 11.7415 12.3155 11.0462 12.7926 10.4712C13.2698 9.89614 13.896 9.46341 14.6026 9.22033C15.3092 8.97726 16.069 8.93321 16.799 9.093C16.8946 9.11228 16.9803 9.16468 17.041 9.24096C17.1018 9.31725 17.1336 9.41253 17.131 9.51C17.1305 9.57451 17.1172 9.63828 17.092 9.69766C17.0668 9.75703 17.0301 9.81084 16.984 9.856L15.079 11.76C14.7926 12.0464 14.6316 12.4349 14.6316 12.84C14.6316 13.2451 14.7926 13.6336 15.079 13.92C15.3654 14.2064 15.7539 14.3674 16.159 14.3674C16.5641 14.3674 16.9526 14.2064 17.239 13.92L19.144 12.016C19.399 11.761 19.829 11.848 19.906 12.201C20.0654 12.9309 20.0211 13.6906 19.7779 14.397C19.5347 15.1034 19.102 15.7294 18.5271 16.2064C17.9521 16.6835 17.2571 16.9934 16.5179 17.1021C15.7788 17.2109 15.024 17.1143 14.336 16.823L11.607 19.553C11.3644 19.7959 11.0471 19.9499 10.7062 19.9903C10.3654 20.0307 10.0208 19.955 9.72823 19.7756C9.43563 19.5961 9.21203 19.3233 9.09351 19.0011C8.975 18.679 8.96847 18.3263 9.075 18ZM14.574 18H14.72C14.6812 17.9904 14.6426 17.9804 14.604 17.97L14.574 18Z"
        fill="#0A95CC" />
</svg>