<svg width="20" height="20" viewBox="0 0 20 20" fill="none" xmlns="http://www.w3.org/2000/svg">
    <path
        d="M3.00001 8.725L0.500007 7.3C0.350007 7.21667 0.229007 7.09567 0.137007 6.937C0.0450073 6.77834 -0.000659472 6.60767 7.19423e-06 6.425V3.575C7.19423e-06 3.39167 0.0460072 3.22067 0.138007 3.062C0.230007 2.90334 0.350674 2.78267 0.500007 2.7L3.00001 1.275C3.15001 1.19167 3.31667 1.15 3.50001 1.15C3.68334 1.15 3.85001 1.19167 4.00001 1.275L6.50001 2.7C6.65001 2.78334 6.77101 2.90434 6.86301 3.063C6.95501 3.22167 7.00067 3.39234 7.00001 3.575V6.425C7.00001 6.60834 6.95401 6.77934 6.86201 6.938C6.77001 7.09667 6.64934 7.21734 6.50001 7.3L4.00001 8.725C3.85001 8.80834 3.68334 8.85 3.50001 8.85C3.31667 8.85 3.15001 8.80834 3.00001 8.725ZM3.50001 6.7L5.00001 5.85V4.15L3.50001 3.3L2.00001 4.15V5.85L3.50001 6.7ZM14.5 9.775V7.45L17 8.925C17.3167 9.10834 17.5627 9.35434 17.738 9.663C17.9133 9.97167 18.0007 10.3007 18 10.65V15.35C18 15.7 17.9123 16.0293 17.737 16.338C17.5617 16.6467 17.316 16.8923 17 17.075L13 19.4C12.6833 19.5833 12.35 19.675 12 19.675C11.65 19.675 11.3167 19.5833 11 19.4L7.00001 17.075C6.68334 16.8917 6.43734 16.6457 6.26201 16.337C6.08667 16.0283 5.99934 15.6993 6.00001 15.35V10.65C6.00001 10.3 6.08767 9.97067 6.26301 9.662C6.43834 9.35334 6.68401 9.10767 7.00001 8.925L9.50001 7.45V9.775L8.00001 10.65V15.35L12 17.675L16 15.35V10.65L14.5 9.775ZM13 6V11C13 11.2833 12.904 11.521 12.712 11.713C12.52 11.905 12.2827 12.0007 12 12C11.7167 12 11.479 11.904 11.287 11.712C11.095 11.52 10.9993 11.2827 11 11V1C11 0.71667 11.096 0.479003 11.288 0.287003C11.48 0.0950034 11.7173 -0.000663206 12 3.46021e-06H18.125C18.525 3.46021e-06 18.825 0.175004 19.025 0.525004C19.225 0.875004 19.2083 1.21667 18.975 1.55L18.375 2.45C18.2583 2.61667 18.2 2.8 18.2 3C18.2 3.2 18.2583 3.38334 18.375 3.55L18.975 4.45C19.2083 4.78334 19.225 5.125 19.025 5.475C18.825 5.825 18.525 6 18.125 6H13Z"
        fill="#0A95CC" />
</svg>