<svg width="48" height="48" viewBox="0 0 48 48" fill="none" xmlns="http://www.w3.org/2000/svg">
<rect width="48" height="48" rx="24" fill="#F05050" fill-opacity="0.08"/>
<path d="M18.4541 16.9366L17.8273 17.467C18.0886 17.2199 18.3646 16.9881 18.6537 16.7732C18.5863 16.8265 18.5198 16.881 18.4541 16.9366ZM16.7732 18.6537C16.9881 18.3646 17.2199 18.0886 17.467 17.8273L16.9366 18.4541C16.881 18.5198 16.8265 18.5863 16.7732 18.6537ZM29.5459 31.0634L30.1728 30.533C29.9114 30.7801 29.6354 31.0119 29.3463 31.2268C29.4136 31.1735 29.4802 31.119 29.5459 31.0634ZM33 24C33 26.1235 32.2536 28.082 31.0103 29.6261L31.1137 29.4812C32.2015 27.9583 33 26.0593 33 24Z" fill="black" stroke="#F05050" stroke-width="2"/>
</svg>
