<svg width="21" height="20" viewBox="0 0 21 20" fill="none" xmlns="http://www.w3.org/2000/svg">
    <g id="vuesax/linear/trash">
        <g id="trash">
            <path id="Vector"
                d="M18.1667 4.98356C15.3917 4.70856 12.6001 4.56689 9.81675 4.56689C8.16675 4.56689 6.51675 4.65023 4.86675 4.81689L3.16675 4.98356"
                stroke="#F05050" stroke-width="1.5" stroke-linecap="round" stroke-linejoin="round" />
            <path id="Vector_2"
                d="M7.75 4.1415L7.93333 3.04984C8.06667 2.25817 8.16667 1.6665 9.575 1.6665H11.7583C13.1667 1.6665 13.275 2.2915 13.4 3.05817L13.5833 4.1415"
                stroke="#F05050" stroke-width="1.5" stroke-linecap="round" stroke-linejoin="round" />
            <path id="Vector_3"
                d="M16.3752 7.6167L15.8335 16.0084C15.7418 17.3167 15.6668 18.3334 13.3418 18.3334H7.99183C5.66683 18.3334 5.59183 17.3167 5.50016 16.0084L4.9585 7.6167"
                stroke="#F05050" stroke-width="1.5" stroke-linecap="round" stroke-linejoin="round" />
            <path id="Vector_4" d="M9.27515 13.75H12.0501" stroke="#F05050" stroke-width="1.5"
                stroke-linecap="round" stroke-linejoin="round" />
            <path id="Vector_5" d="M8.5835 10.4165H12.7502" stroke="#F05050" stroke-width="1.5"
                stroke-linecap="round" stroke-linejoin="round" />
        </g>
    </g>
</svg>